<svg width="179" height="124" viewBox="0 0 179 124" fill="none" xmlns="http://www.w3.org/2000/svg">
<g opacity="0.7">
<path d="M145.269 1.23896C145.296 1.27869 145.327 1.31541 145.353 1.35611C145.32 1.28945 145.292 1.25441 145.269 1.23896Z" fill="url(#paint0_linear_4001_1689)"/>
<path d="M41.4217 44.0998C41.3622 43.8839 41.3024 43.6667 41.2422 43.4479C41.1798 43.2304 41.1173 43.0109 41.0644 42.7888C40.8408 41.9021 40.5965 41.0083 40.3399 40.1301C40.2746 39.9109 40.2095 39.6921 40.1449 39.4748C40.0856 39.256 40.0271 39.0385 39.9685 38.8225C39.8505 38.3907 39.7296 37.9657 39.6072 37.5507C39.4848 37.1357 39.3602 36.7305 39.2345 36.3384C39.1713 36.1423 39.1089 35.9491 39.0478 35.7599C38.99 35.5698 38.9332 35.3829 38.8777 35.2C38.6498 34.4692 38.4171 33.8026 38.184 33.2271C37.9512 32.6513 37.7118 32.1667 37.502 31.7974C37.4907 32.2108 37.5112 32.6302 37.5328 33.0576C37.5548 33.4847 37.5822 33.9188 37.6159 34.3578C37.6843 35.2358 37.7622 36.1354 37.9188 37.0288C38.0615 37.9245 38.2257 38.8235 38.4075 39.7095C38.6126 40.5901 38.8495 41.4544 39.0914 42.2918C39.2134 42.7104 39.3385 43.1215 39.466 43.5235C39.6077 43.9212 39.7528 44.3098 39.899 44.6876C40.1915 45.4428 40.4905 46.1542 40.79 46.8061C40.9345 47.1338 41.1031 47.4386 41.2622 47.7302C41.4228 48.021 41.5824 48.2956 41.7393 48.5523C42.054 49.0654 42.3612 49.5065 42.6545 49.862C42.5879 49.2347 42.4678 48.5342 42.3055 47.7831C42.2262 47.4067 42.1283 47.0205 42.0363 46.6195C41.9498 46.2162 41.8545 45.8027 41.7517 45.3821C41.6484 44.9599 41.5384 44.5319 41.4217 44.0998Z" fill="url(#paint1_linear_4001_1689)"/>
<path d="M122.997 92.2571C123.207 91.9619 123.412 91.6551 123.613 91.3536C123.299 91.5313 122.984 91.7151 122.665 91.8744C122.776 92.0013 122.884 92.1324 122.997 92.2571Z" fill="url(#paint2_linear_4001_1689)"/>
<path d="M37.1097 23.7029L37.3433 23.6872L37.2187 23.468L37.1097 23.7029Z" fill="url(#paint3_linear_4001_1689)"/>
<path d="M172.198 62.306C172.322 62.4081 172.447 62.5111 172.569 62.6117C172.87 62.1221 173.147 61.6141 173.434 61.1159C173.325 61.0531 173.216 60.9903 173.103 60.9251C172.802 61.3861 172.508 61.8546 172.198 62.306Z" fill="url(#paint4_linear_4001_1689)"/>
<path d="M165.696 69.3345L165.366 69.707L165.021 70.0661L164.328 70.7825C164.423 70.8714 164.52 70.9612 164.616 71.051L165.38 70.38L165.761 70.0419L166.127 69.6902C166.614 69.2175 167.1 68.7449 167.586 68.2725C167.398 68.1265 167.202 67.9848 167.009 67.8413C166.572 68.3386 166.134 68.8361 165.696 69.3345Z" fill="url(#paint5_linear_4001_1689)"/>
<path d="M47.732 55.2756L47.521 55.1368L47.5306 55.3952L47.732 55.2756Z" fill="url(#paint6_linear_4001_1689)"/>
<path d="M177.64 48.7447C177.291 49.2823 176.934 49.8456 176.572 50.4284C176.202 51.0062 175.798 51.5883 175.406 52.1924C175.21 52.4934 175.012 52.7978 174.812 53.1044C174.711 53.2574 174.615 53.4136 174.511 53.5653C174.406 53.716 174.3 53.8671 174.194 54.0186C173.77 54.6253 173.346 55.2392 172.925 55.8559L172.611 56.3189C172.504 56.4717 172.39 56.6198 172.28 56.7704C172.06 57.071 171.84 57.3713 171.621 57.6703C171.404 57.9704 171.187 58.2692 170.972 58.5663C170.756 58.8624 170.553 59.1643 170.325 59.4462C169.881 60.0175 169.449 60.5816 169.031 61.1335C168.823 61.4096 168.617 61.6821 168.415 61.9498C168.204 62.2113 167.997 62.4686 167.794 62.7205C167.389 63.2268 167.005 63.7163 166.646 64.1854C165.164 66.0218 164.052 67.509 163.644 68.3505C164.391 68.5492 165.07 68.688 165.643 68.5197C166.204 68.3423 166.668 67.8587 166.981 66.85C167.097 66.4729 167.254 66.1056 167.442 65.7481C167.626 65.3876 167.824 65.0232 168.05 64.6756C168.497 63.9763 169.025 63.3169 169.534 62.6952C170.017 62.0618 170.513 61.4388 171.016 60.8199C171.266 60.5092 171.526 60.2056 171.77 59.8908L172.494 58.9399C172.974 58.304 173.468 57.6746 173.932 57.025C174.382 56.366 174.825 55.7007 175.255 55.0264C177.276 51.7667 178.944 48.2845 180.363 44.7072C179.845 45.3762 179.256 46.2236 178.638 47.2044C178.34 47.6998 177.986 48.2058 177.64 48.7447Z" fill="url(#paint7_linear_4001_1689)"/>
<path d="M62.2952 73.5944C62.0354 73.274 61.7634 72.9487 61.4817 72.6199C61.1996 72.2913 60.9074 71.9595 60.6079 71.6267C60.4573 71.461 60.3057 71.2945 60.1529 71.1267C59.9987 70.9607 59.8439 70.7937 59.696 70.6192C59.0952 69.9298 58.4728 69.2432 57.8464 68.5767C57.6888 68.4108 57.532 68.2453 57.3758 68.0809C57.2242 67.9125 57.0731 67.7452 56.9236 67.5789C56.6228 67.2473 56.3227 66.9229 56.0257 66.6082C55.7284 66.2937 55.4341 65.9884 55.1445 65.6957C54.9993 65.5494 54.8564 65.4055 54.7165 65.2642C54.5787 65.1207 54.4435 64.9801 54.3113 64.842C53.7773 64.2935 53.2682 63.8042 52.7995 63.3966C52.3312 62.9889 51.8987 62.665 51.544 62.4305C51.7214 62.8042 51.9291 63.169 52.1418 63.54C52.3545 63.911 52.5757 64.2857 52.8045 64.6617C53.2624 65.4136 53.7395 66.1802 54.2833 66.9064C54.816 67.6405 55.3696 68.3677 55.9328 69.0755C56.5141 69.7681 57.1169 70.4316 57.7117 71.0686C58.0096 71.3866 58.3076 71.6964 58.6032 71.9971C58.9096 72.2878 59.2147 72.5686 59.5159 72.8394C60.1186 73.3806 60.7069 73.8791 61.2693 74.3252C61.5468 74.5523 61.8349 74.7475 62.1086 74.9352C62.3836 75.1217 62.6497 75.2947 62.9064 75.4522C63.4194 75.7673 63.8928 76.0212 64.3149 76.2059C63.9716 75.6768 63.5474 75.1064 63.0626 74.51C62.8211 74.2105 62.5586 73.9108 62.2952 73.5944Z" fill="url(#paint8_linear_4001_1689)"/>
<path d="M42.792 64.1963C43.1371 64.6298 43.4941 65.0546 43.8336 65.4909C44.0601 65.3124 44.2835 65.1366 44.5162 64.9535L43.9508 63.97C43.7625 63.6422 43.5733 63.3154 43.4022 62.9787L42.3595 60.9688C41.6528 59.6371 41.0571 58.2531 40.4492 56.8829C40.2962 56.5252 40.134 56.1719 39.9929 55.8096L39.574 54.7219C39.2975 53.9962 39.0263 53.2697 38.7595 52.5431C38.6209 52.1818 38.5074 51.8109 38.3863 51.4438L38.0302 50.3394C37.7976 49.6022 37.556 48.8696 37.3404 48.1297L36.729 45.9005C36.5282 45.1577 36.3181 44.4189 36.1524 43.6679C35.8082 42.1698 35.4239 40.6858 35.1369 39.1781L34.6373 36.7128C34.4978 35.886 34.3662 35.0584 34.2357 34.2311L34.0434 32.9902C33.977 32.5772 33.9399 32.1592 33.8883 31.7439L33.6099 29.2489C33.5594 28.834 33.5335 28.4162 33.5042 27.999L33.419 26.7473L33.3395 25.4956L33.3022 24.8701C33.293 24.6614 33.2902 24.4519 33.2845 24.2432C33.2523 22.5707 33.1924 20.9014 33.2632 19.2295C33.2881 18.3943 33.3092 17.5592 33.3485 16.7256L33.537 14.2266L33.6407 12.9789C33.6825 12.5637 33.7387 12.1491 33.7885 11.735C33.892 10.9064 33.9993 10.0784 34.1117 9.25227C34.1614 8.83818 34.2436 8.42822 34.3125 8.01692L34.532 6.7846L34.7586 5.55438L34.8746 4.94012L35.0125 4.32995C35.3913 2.7048 35.7451 1.0769 36.2321 -0.517571C36.4331 -1.21531 36.6433 -1.90977 36.8614 -2.60065C37.0852 -3.29006 37.3474 -3.96678 37.5991 -4.64503C37.8547 -5.32225 38.1165 -5.99638 38.3837 -6.66637C38.6737 -7.3286 38.9685 -7.9878 39.2667 -8.64425C39.5685 -9.29889 39.8587 -9.95741 40.1783 -10.6013L41.1628 -12.5189L41.6574 -13.4735L41.9045 -13.95C41.9878 -14.108 42.0791 -14.2624 42.1663 -14.4187L43.2193 -16.2865C43.9148 -17.5696 44.7508 -18.7868 45.5078 -20.0358C45.8819 -20.661 46.255 -21.2847 46.6258 -21.9048C46.9889 -22.528 47.3264 -23.1612 47.6263 -23.8115C47.7999 -24.1811 47.9679 -24.5536 48.1591 -24.9105C48.3517 -25.2666 48.5492 -25.6185 48.7512 -25.9667C49.1554 -26.6628 49.5783 -27.3425 50.021 -28.0031C50.2367 -28.3368 50.4826 -28.6503 50.723 -28.9648C50.9656 -29.2782 51.2131 -29.5864 51.4654 -29.8896C51.9723 -30.4937 52.4867 -31.0848 53.0413 -31.6367C53.6057 -32.1817 54.1888 -32.7027 54.7898 -33.1977C55.3935 -33.6905 56.0007 -34.169 56.6677 -34.5842C57.3255 -35.007 58.0008 -35.4012 58.6929 -35.7636C59.04 -35.9439 59.3867 -36.1206 59.7457 -36.2811C60.1097 -36.4373 60.4772 -36.5855 60.8492 -36.7253C61.4647 -36.9569 62.0914 -37.2457 62.6229 -37.6338C63.2126 -38.076 63.8347 -38.4781 64.4522 -38.8814C65.0699 -39.2844 65.6881 -39.6814 66.3061 -40.0745C66.9278 -40.463 67.5716 -40.8199 68.2016 -41.1889C68.8372 -41.5507 69.4611 -41.9237 70.1017 -42.2692L72.0308 -43.2841L72.9895 -43.7904C73.305 -43.9639 73.6379 -44.1107 73.96 -44.2728C75.2612 -44.9009 76.5303 -45.5667 77.8378 -46.1592C82.5517 -48.409 87.4237 -50.2213 92.3934 -51.5404C94.7619 -52.169 97.1534 -52.682 99.5563 -53.0808C100.186 -53.114 100.813 -53.1527 101.441 -53.1681L103.621 -53.2001L104.705 -53.2175C105.065 -53.2292 105.428 -53.2099 105.789 -53.2084C107.233 -53.1795 108.666 -53.1987 110.1 -53.1357C115.322 -53.0083 120.486 -52.4192 125.515 -51.3463C130.542 -50.2741 135.434 -48.7166 140.08 -46.6681C140.881 -46.3127 141.754 -45.8564 142.582 -45.8634C143.001 -45.8635 143.412 -45.8382 143.817 -45.7916C144.216 -45.7317 144.608 -45.6498 144.994 -45.5498C145.767 -45.349 146.513 -45.0748 147.239 -44.7528C147.954 -44.4086 148.647 -44.0105 149.33 -43.5939C149.671 -43.385 150.01 -43.1707 150.347 -42.9535C150.68 -42.7285 151.007 -42.4926 151.337 -42.2614C152.039 -41.7611 152.788 -41.329 153.614 -40.8403C154.43 -40.334 155.334 -39.7892 156.367 -39.1134C155.838 -40.0763 155.733 -40.4525 155.491 -40.6442C154.041 -41.78 152.542 -42.8688 151.005 -43.9099C151.098 -44.0192 151.191 -44.1278 151.285 -44.2368C150.881 -44.5068 150.477 -44.7776 150.073 -45.0485L149.463 -45.4525L148.839 -45.8309C148.764 -45.7122 148.687 -45.5892 148.609 -45.4672C146.519 -46.7633 144.353 -47.9506 142.107 -48.9973C142.233 -49.0986 142.375 -49.2856 142.505 -49.4022C142.205 -49.5523 141.915 -49.7458 141.595 -49.8281C141.488 -49.8559 141.322 -49.6244 141.125 -49.4389C140.878 -49.548 140.636 -49.6645 140.388 -49.7701C135.459 -51.8933 130.286 -53.5266 124.962 -54.6451C125.122 -54.6289 125.276 -54.6142 125.442 -54.5961C124.534 -55.2149 124.271 -55.5032 123.968 -55.5647C118.239 -56.6933 112.312 -57.2667 106.369 -56.8668C103.728 -56.7005 101.088 -56.3961 98.4606 -55.9664C93.3694 -55.444 88.2735 -54.4909 83.2441 -53.1078C78.0818 -51.6886 73.0786 -49.6395 68.3248 -47.021C63.5652 -44.3991 59.0516 -41.1871 54.9284 -37.4923C50.8028 -33.7985 47.0684 -29.6257 43.8058 -25.1049C40.5415 -20.5836 37.7478 -15.7164 35.4531 -10.6222C32.7757 -4.64831 30.8836 1.67874 29.7577 8.13887C29.6771 8.54073 29.6259 8.94807 29.5633 9.35336L29.3871 10.5707L29.2173 11.7891C29.1627 12.1955 29.1026 12.6008 29.0675 13.0099L28.8369 15.4602L28.7308 16.6862L28.6693 17.9161L28.5646 20.3763C28.5436 20.7863 28.5469 21.197 28.5456 21.6075L28.5466 22.8395L28.5529 24.0714C28.5595 24.4821 28.5509 24.8925 28.5751 25.3031L28.6919 27.7658C28.7243 28.3188 28.7904 28.8661 28.9025 29.4089C29.0139 29.952 29.1402 30.4918 29.245 31.0345C29.5279 30.9781 29.8065 30.9224 30.0967 30.8642L30.0376 29.7311C30.0181 29.3536 29.9972 28.9765 29.997 28.5988L29.9772 26.3346C29.95 24.8274 30.0449 23.3236 30.123 21.8267C30.1487 21.4384 30.1637 21.0501 30.2019 20.6632L30.3204 19.5035C30.3823 18.92 30.4496 18.3386 30.5169 17.7577C30.3985 20.3477 30.3956 22.944 30.5159 25.5355C30.8319 32.0744 32.0089 38.5728 33.9288 44.8423C34.0387 45.2373 34.1775 45.6233 34.3052 46.0128L34.6988 47.1781L35.099 48.3411C35.234 48.7283 35.3641 49.1169 35.5182 49.4975L36.4218 51.7867L36.8822 52.9278L37.384 54.0521L38.4042 56.2933C38.5711 56.6683 38.7598 57.033 38.9443 57.3998L39.5025 58.4978L40.0655 59.5935C40.2572 59.9566 40.4353 60.3266 40.6427 60.6816L41.8615 62.8247C42.1396 63.3046 42.4465 63.763 42.792 64.1963ZM77.0775 -49.5351C77.4211 -49.7349 77.7818 -49.9035 78.1389 -50.0748C78.4971 -50.2444 78.8571 -50.4073 79.2192 -50.5634C79.9446 -50.8724 80.6708 -51.1665 81.4148 -51.4079C81.8942 -51.5553 82.377 -51.6859 82.8608 -51.8087C81.4389 -51.2771 80.0268 -50.7106 78.6283 -50.0995C77.724 -49.7054 76.8264 -49.2903 75.9329 -48.8633C76.312 -49.0941 76.6934 -49.3196 77.0775 -49.5351Z" fill="url(#paint9_linear_4001_1689)"/>
<path d="M178.749 6.08268C178.638 5.75622 178.537 5.4276 178.445 5.09724C178.258 4.43715 178.119 3.76499 177.971 3.09349C177.811 2.42537 177.67 1.7503 177.531 1.0726C177.457 0.734862 177.401 0.391707 177.314 0.0574783L177.057 -0.947496C176.876 -1.61515 176.7 -2.28628 176.468 -2.9361C176.225 -3.58229 175.957 -4.21851 175.648 -4.83494C175.49 -5.14151 175.338 -5.45019 175.145 -5.74026C174.956 -6.03172 174.755 -6.31722 174.541 -6.59493C174.111 -7.14867 173.642 -7.67845 173.085 -8.15315C173.255 -7.40798 173.407 -6.66031 173.583 -5.92742L173.845 -4.83066C173.921 -4.46168 174 -4.09474 174.082 -3.72948C174.164 -3.36401 174.249 -3.00117 174.336 -2.63964C174.424 -2.27832 174.518 -1.9198 174.59 -1.55427C174.748 -0.827391 174.917 -0.106963 175.102 0.607691C175.202 0.969837 175.269 1.34152 175.35 1.7089L175.584 2.81161L175.816 3.91226L176.002 5.02209L176.188 6.12934L176.28 6.682C176.312 6.86608 176.328 7.05308 176.353 7.23838L176.622 9.46205C176.902 12.4328 176.999 15.4073 176.84 18.3586C176.652 21.3093 176.248 24.2298 175.567 27.0696C175.391 27.7784 175.185 28.4799 174.988 29.1787C174.884 29.527 174.794 29.8776 174.675 30.2215L174.314 31.2496L173.945 32.2699L173.757 32.777C173.738 32.8242 173.717 32.8706 173.698 32.9173C173.736 32.7713 173.779 32.6263 173.815 32.4793L174.224 30.6589L174.426 29.7451L174.589 28.8243L174.916 26.9758L175.164 25.1124L175.288 24.1773C175.33 23.865 175.347 23.552 175.378 23.2388L175.544 21.3539C175.578 21.0389 175.583 20.7238 175.599 20.4083L175.642 19.4603L175.686 18.5096L175.707 18.0334L175.708 17.5578C175.708 16.2893 175.741 15.0095 175.67 13.7344C175.524 9.42598 175.13 5.04793 174.257 0.676557C173.386 -3.69052 172.033 -8.04029 170.047 -12.1483C169.616 -13.1076 169.113 -14.0404 168.609 -14.9843L168.221 -15.6875L168.023 -16.0371L167.807 -16.3757C167.515 -16.825 167.213 -17.2682 166.896 -17.7009C166.738 -17.917 166.575 -18.1308 166.409 -18.3411C166.242 -18.5504 166.077 -18.7617 165.89 -18.9547C165.522 -19.3467 165.137 -19.7234 164.732 -20.0793C164.473 -20.3041 164.205 -20.5186 163.93 -20.7256C162.778 -22.5746 161.544 -24.3932 160.21 -26.1614C160.15 -26.3426 160.082 -26.5192 159.999 -26.6829C159.892 -26.8785 159.766 -27.0559 159.626 -27.2072C159.148 -27.7133 158.666 -28.2191 158.177 -28.7185C155.718 -31.648 152.949 -34.38 149.845 -36.7436C149.026 -37.4045 148.155 -38.0081 147.279 -38.6215L146.615 -39.0734L146.28 -39.2954L145.934 -39.4993C145.471 -39.7681 145.001 -40.0263 144.522 -40.2686C144.283 -40.3898 144.041 -40.507 143.798 -40.619C143.554 -40.7299 143.312 -40.844 143.057 -40.9312C142.551 -41.1148 142.038 -41.2762 141.515 -41.4102C140.992 -41.5412 140.465 -41.6555 139.921 -41.7153C139.757 -41.7304 139.592 -41.736 139.427 -41.745C138.208 -42.3169 136.973 -42.8586 135.72 -43.3632C135.683 -43.4309 135.644 -43.4934 135.609 -43.5653C135.421 -43.9563 135.148 -44.3551 134.824 -44.6963C134.663 -44.867 134.488 -45.0227 134.306 -45.156C134.122 -45.2818 133.93 -45.3833 133.736 -45.4548C132.81 -45.7872 131.881 -46.1266 130.938 -46.421C129.99 -46.6963 129.036 -46.9618 128.077 -47.2195C127.113 -47.4445 126.142 -47.6497 125.169 -47.8561C124.683 -47.9678 124.191 -48.0318 123.701 -48.1171L122.226 -48.3546C121.918 -48.3984 121.603 -48.4016 121.245 -48.3545C120.888 -48.3121 120.49 -48.2504 120.017 -48.2082C120.346 -47.8693 120.723 -47.6596 121.119 -47.5077C120.292 -47.6494 119.464 -47.7856 118.63 -47.8978C118.646 -47.886 118.665 -47.8726 118.679 -47.8627C118.691 -47.8619 118.704 -47.8613 118.715 -47.8655C118.708 -47.8612 118.704 -47.8526 118.697 -47.8438C119.388 -47.2929 120.072 -46.6686 120.904 -45.9206C120.309 -45.2619 119.961 -44.5467 119.439 -44.3553C119.397 -44.3408 119.349 -44.3299 119.304 -44.3183C118.853 -44.448 118.439 -44.6518 118.062 -44.9328C117.839 -45.0911 117.631 -45.2829 117.434 -45.4976C117.451 -45.8358 117.518 -46.1939 117.609 -46.475C117.771 -46.9947 118.308 -47.3937 118.697 -47.8444C118.691 -47.8499 118.684 -47.8555 118.679 -47.8631C117.765 -47.7559 116.794 -47.7967 115.918 -47.6261C115.851 -47.701 115.789 -47.788 115.72 -47.8568C115.345 -48.2283 114.936 -48.5298 114.496 -48.7312C113.616 -49.1471 112.607 -49.3054 111.477 -49.3217C107.635 -49.3263 103.773 -49.0187 99.9374 -48.4028C99.825 -48.3962 99.7168 -48.39 99.6031 -48.3831C99.2356 -48.3586 98.8613 -48.3341 98.4808 -48.3092C98.1014 -48.275 97.7178 -48.2278 97.3255 -48.1847C96.5426 -48.0957 95.7339 -47.9984 94.9021 -47.8921C94.0767 -47.7647 93.2327 -47.6122 92.3661 -47.4585C91.934 -47.3791 91.4942 -47.3047 91.0548 -47.2144C90.6178 -47.1139 90.1768 -47.0131 89.732 -46.911C89.2863 -46.8055 88.8372 -46.6991 88.3846 -46.5921C87.9319 -46.4835 87.4733 -46.3768 87.0236 -46.2394C86.1181 -45.9788 85.2001 -45.7077 84.2726 -45.4262L83.9244 -45.3203L83.5812 -45.2014C83.3523 -45.1213 83.1232 -45.0406 82.8932 -44.9598C82.4333 -44.7956 81.9717 -44.6308 81.5089 -44.4658C81.0476 -44.2954 80.5775 -44.1362 80.1204 -43.9502C79.6645 -43.7605 79.2077 -43.5698 78.7503 -43.3793C78.2928 -43.1849 77.835 -42.9899 77.3771 -42.7952C77.1486 -42.6958 76.9175 -42.6001 76.6916 -42.4964L76.0186 -42.1723C75.1218 -41.7381 74.226 -41.2964 73.3352 -40.8485C72.4598 -40.3731 71.5943 -39.8825 70.7343 -39.3922C69.8659 -38.9147 69.0468 -38.3697 68.2242 -37.8451C67.4052 -37.3149 66.5881 -36.7959 65.8245 -36.2246C65.0519 -35.6654 64.2929 -35.1073 63.5527 -34.551C62.8337 -33.9697 62.1321 -33.3913 61.4504 -32.8196C61.1121 -32.5306 60.7678 -32.2555 60.4495 -31.9604C60.131 -31.6648 59.817 -31.3727 59.5071 -31.0849C58.8921 -30.5039 58.2899 -29.9409 57.7299 -29.3749C57.1811 -28.7987 56.6567 -28.2357 56.159 -27.689C55.9118 -27.414 55.6697 -27.1453 55.4328 -26.882C55.1956 -26.619 54.9855 -26.3439 54.7716 -26.0828C54.3488 -25.557 53.9543 -25.0513 53.5899 -24.5691C53.4099 -24.3267 53.2356 -24.0914 53.0665 -23.8639C52.9001 -23.6351 52.7549 -23.4022 52.6099 -23.1819C52.0374 -22.2955 51.5905 -21.5193 51.2842 -20.8768C51.1274 -20.558 51.0193 -20.2636 50.9463 -20.006C50.8729 -19.7492 50.8347 -19.5289 50.8335 -19.3482C51.1465 -19.5977 51.4451 -19.8436 51.75 -20.0784C51.3705 -19.5737 50.9888 -19.0701 50.6143 -18.5617C50.0492 -17.7416 49.4993 -16.9122 48.9543 -16.086C48.3958 -15.2674 47.9121 -14.4107 47.4162 -13.5704C46.9258 -12.7271 46.4322 -11.8944 46.01 -11.0393C45.574 -10.1911 45.15 -9.34981 44.7414 -8.51888C44.6791 -8.38018 44.6234 -8.2468 44.5621 -8.10873C44.5873 -8.32103 44.6088 -8.53731 44.6224 -8.76388C44.2301 -8.45383 43.8762 -8.13539 43.5567 -7.81051C43.2462 -7.48176 42.977 -7.14389 42.7334 -6.80364C42.2475 -6.12193 41.8798 -5.42397 41.5926 -4.72139C41.3179 -4.01405 41.1442 -3.29435 40.9999 -2.58014C40.9291 -2.22267 40.8687 -1.86497 40.8135 -1.50836C40.7572 -1.15204 40.707 -0.795927 40.6738 -0.435774C40.7745 -0.582239 40.8731 -0.728964 40.98 -0.872321L41.3076 -1.30025C41.5254 -1.58407 41.7441 -1.86888 41.9654 -2.15666C42.1163 -2.35599 42.2609 -2.56179 42.4063 -2.76652C42.2256 -2.26009 42.0497 -1.7588 41.8923 -1.2677C41.6639 -0.505429 41.4509 0.234028 41.2546 0.9467C41.1587 1.30345 41.0646 1.65336 40.9726 1.99497C40.8802 2.33678 40.8175 2.67717 40.7447 3.00668C40.6058 3.66713 40.4826 4.29657 40.3763 4.89139C40.3255 5.18911 40.2763 5.47779 40.2289 5.75686C40.1837 6.03653 40.1599 6.30954 40.1304 6.57161C40.021 7.62093 39.974 8.51538 39.9914 9.22691C39.9957 9.58213 40.0326 9.89369 40.0844 10.1561C40.1353 10.4185 40.2007 10.6319 40.2817 10.7934C40.4885 10.3406 40.6724 9.8987 40.8889 9.47191C41.1013 9.04743 41.3099 8.6314 41.5149 8.22268C41.7209 7.8191 41.9232 7.42247 42.1226 7.0318C42.3224 6.6437 42.5148 6.26281 42.7301 5.89302C43.5749 4.41144 44.336 3.02738 45.2017 1.69136C45.3717 1.42415 45.3554 0.897283 45.2172 0.597371C44.6828 -0.557349 44.7719 -1.67952 45.02 -2.78505C45.1475 -3.3372 45.308 -3.8888 45.4854 -4.43295C45.6721 -4.97439 45.856 -5.51564 45.9912 -6.06552C46.1805 -6.82387 46.4392 -7.45032 46.8809 -7.88444C47.3297 -8.31549 47.9364 -8.56496 48.7814 -8.58861C49.4277 -8.60505 50.0159 -8.73067 50.5551 -8.93449C50.8249 -9.03635 51.0823 -9.15818 51.3293 -9.29551C51.5754 -9.43334 51.8104 -9.58714 52.049 -9.74734C52.1796 -9.83704 52.301 -9.93826 52.4261 -10.0348C51.4807 -8.23489 50.6323 -6.38061 49.8813 -4.48712C50.3044 -5.03272 50.7847 -5.72411 51.2879 -6.52418C51.5323 -6.92791 51.8204 -7.34072 52.1031 -7.77996C52.3881 -8.21861 52.6791 -8.67794 52.974 -9.15334C53.276 -9.62476 53.6058 -10.0994 53.9251 -10.5922C54.0852 -10.8379 54.2468 -11.086 54.41 -11.3364C54.4921 -11.4611 54.5701 -11.5888 54.6553 -11.7125C54.7414 -11.8353 54.8277 -11.9586 54.9143 -12.0822C55.2602 -12.577 55.6059 -13.078 55.9486 -13.581L56.2052 -13.9584C56.2926 -14.0833 56.3854 -14.2038 56.4749 -14.3266C56.6547 -14.5718 56.8342 -14.8167 57.0128 -15.0607C57.19 -15.3053 57.3667 -15.5492 57.542 -15.7913C57.718 -16.0329 57.8843 -16.2788 58.07 -16.5088C58.432 -16.9747 58.7848 -17.4349 59.1253 -17.8851C59.2953 -18.1102 59.463 -18.3327 59.6281 -18.5512C59.8 -18.7646 59.9691 -18.9744 60.1348 -19.1799C60.4647 -19.593 60.778 -19.9926 61.0712 -20.3748C62.2801 -21.8727 63.187 -23.0859 63.5203 -23.7726C62.9099 -23.9346 62.3568 -24.048 61.8895 -23.9109C61.4314 -23.7663 61.0533 -23.3718 60.7984 -22.5493C60.7091 -22.2594 60.5879 -21.9774 60.4469 -21.7021C60.5703 -21.9978 60.637 -22.3716 60.639 -22.8365C60.6402 -23.044 60.654 -23.2415 60.673 -23.4344C60.7076 -23.409 60.7414 -23.3832 60.7757 -23.3576C61.1326 -23.7633 61.4896 -24.169 61.847 -24.5755L62.1164 -24.8796L62.3976 -25.1723L62.9625 -25.7568C62.8848 -25.829 62.8062 -25.9029 62.7275 -25.976L62.1041 -25.4289L61.7938 -25.1528L61.4953 -24.8657C61.2638 -24.6409 61.0325 -24.4166 60.8015 -24.192C60.9492 -24.7807 61.1953 -25.29 61.5417 -25.7259C61.8296 -26.1013 62.1734 -26.4364 62.563 -26.7468C62.7579 -26.9019 62.9641 -27.0509 63.1806 -27.1955C63.3955 -27.3411 63.623 -27.4811 63.8694 -27.61C64.3506 -27.8706 64.7938 -28.2683 65.1783 -28.7291C65.3705 -28.9595 65.5479 -29.2056 65.7077 -29.4584C65.8686 -29.7103 66.0063 -29.9736 66.139 -30.2188C66.4778 -30.8691 66.8369 -31.4303 67.3044 -31.823C67.5381 -32.0195 67.7986 -32.1737 68.0967 -32.2756C68.2085 -32.3134 68.3267 -32.342 68.4496 -32.3642C68.6085 -32.3323 68.7667 -32.3066 68.9245 -32.2893C69.2114 -32.2582 69.4957 -32.2499 69.7781 -32.2611C70.0598 -32.2724 70.3389 -32.3036 70.6241 -32.3384C70.7211 -32.3514 70.8163 -32.3753 70.9129 -32.3915C69.2698 -31.2222 67.6871 -29.9627 66.1721 -28.6247C66.7962 -28.9196 67.5375 -29.319 68.3487 -29.8045C68.7493 -30.0539 69.1931 -30.2915 69.6442 -30.5553C69.8945 -30.7003 70.1501 -30.8512 70.4091 -31.0055C70.386 -30.8274 70.3614 -30.6494 70.3401 -30.4723C70.5031 -30.7173 70.664 -30.9674 70.8371 -31.2006C70.8168 -31.2089 70.7959 -31.2174 70.7755 -31.2257C70.8649 -31.2797 70.9525 -31.3317 71.0427 -31.3861C71.5256 -31.6697 72.0343 -31.9438 72.542 -32.2384C72.7958 -32.3849 73.0525 -32.5331 73.3111 -32.6824C73.4404 -32.7565 73.5677 -32.8349 73.6998 -32.9068C73.8321 -32.9775 73.9653 -33.0482 74.0983 -33.1192C74.6305 -33.4041 75.1656 -33.6943 75.6989 -33.9874L76.0985 -34.2081C76.2326 -34.2798 76.3703 -34.3455 76.5058 -34.4146C76.777 -34.5521 77.0478 -34.6894 77.3175 -34.826C77.3704 -34.8532 77.4225 -34.8799 77.475 -34.9069C77.479 -34.9059 77.4823 -34.9044 77.4863 -34.9033C77.8754 -34.8037 78.233 -34.7638 78.5621 -34.768C78.2729 -34.5471 77.9809 -34.3355 77.6898 -34.123C77.3133 -33.8574 76.9279 -33.612 76.5343 -33.3833C76.3375 -33.2687 76.1385 -33.1586 75.9378 -33.0523C75.736 -32.9472 75.5413 -32.8296 75.3399 -32.7238C74.9389 -32.508 74.5304 -32.3051 74.1157 -32.1106C73.9083 -32.0133 73.6995 -31.9186 73.4888 -31.8255C73.2786 -31.7324 73.0742 -31.6273 72.8647 -31.5312C72.4475 -31.3351 72.0252 -31.1444 71.5997 -30.9551L70.9593 -30.6723C70.7463 -30.5765 70.5396 -30.4705 70.3288 -30.3698C70.3355 -30.4038 70.3359 -30.4375 70.3406 -30.4731C70.3093 -30.4255 70.2775 -30.377 70.2461 -30.3288L70.2454 -30.3283L70.3216 -30.3117C69.9256 -29.8505 69.3395 -29.5369 68.8481 -29.0608C68.3657 -28.5759 67.994 -27.9077 68.0383 -26.8162C68.3686 -27.0198 68.6768 -27.2025 68.9674 -27.3722C69.1126 -27.4565 69.253 -27.5385 69.3899 -27.618C69.5256 -27.6988 69.6591 -27.7739 69.7928 -27.843C70.3225 -28.1264 70.7924 -28.3905 71.2339 -28.696C71.4546 -28.8478 71.6716 -29.0075 71.8872 -29.1697C72.1084 -29.3237 72.328 -29.4824 72.5464 -29.6429C72.9838 -29.9642 73.4184 -30.2935 73.859 -30.61C74.3025 -30.9214 74.7662 -31.1953 75.2344 -31.447C75.4695 -31.5713 75.707 -31.6869 75.9486 -31.7906C76.1896 -31.8953 76.4345 -31.9875 76.69 -32.0519C78.653 -32.5979 80.487 -33.1544 82.1819 -34.0049C82.6062 -34.2174 83.0199 -34.4548 83.4238 -34.7229C83.6246 -34.8602 83.827 -34.9929 84.0282 -35.1329C84.2283 -35.2738 84.4269 -35.4233 84.6226 -35.5812C85.0146 -35.8977 85.3982 -36.2505 85.7751 -36.6444C86.1555 -37.0264 86.5329 -37.4396 86.9038 -37.9055C87.2939 -36.9654 87.7729 -36.5996 88.302 -36.5178C88.5617 -36.4815 88.8382 -36.5012 89.1243 -36.5522C88.5863 -36.3295 88.0489 -36.1056 87.5101 -35.8953C87.317 -35.8239 87.1294 -35.7362 86.9409 -35.6526L86.3755 -35.4007L85.2453 -34.9053C84.8649 -34.7516 84.4995 -34.5616 84.1243 -34.3971C83.7509 -34.2288 83.3752 -34.0668 82.9959 -33.9137C81.4912 -33.2727 79.9491 -32.7354 78.2618 -32.3964C78.0681 -32.3595 77.8798 -32.2976 77.6953 -32.2197C77.5103 -32.1435 77.3302 -32.0486 77.1584 -31.936C76.8113 -31.717 76.4743 -31.468 76.1295 -31.2551C74.2778 -30.1373 72.5615 -28.8025 70.8729 -27.4536L69.6397 -26.3988C69.2282 -26.048 68.8094 -25.7064 68.4153 -25.3356C68.0147 -24.9725 67.6119 -24.6124 67.2046 -24.256L66.899 -23.9888L66.6038 -23.7109L66.0078 -23.1601L65.3685 -22.5756L65.0484 -22.2828C64.942 -22.1851 64.8431 -22.0802 64.7394 -21.9793L63.5104 -20.753L63.2028 -20.4455C63.1009 -20.3423 63.0058 -20.2334 62.9069 -20.1276L62.3187 -19.4866L61.7296 -18.8437L61.4348 -18.5216C61.3389 -18.4123 61.2473 -18.2998 61.1532 -18.1891L60.0313 -16.8489L59.7505 -16.5125L59.4848 -16.1651L58.9536 -15.4683L58.4228 -14.7692C58.3348 -14.6521 58.2446 -14.5365 58.1584 -14.4179L57.9086 -14.0573L56.9101 -12.6078C55.6311 -10.6411 54.4176 -8.60571 53.4056 -6.46215L53.0159 -5.6617C52.8835 -5.39515 52.7761 -5.11969 52.6551 -4.84832L51.9548 -3.2066C51.7366 -2.65319 51.5362 -2.0924 51.3296 -1.53233L51.0239 -0.690081C50.9299 -0.406574 50.8437 -0.121359 50.7541 0.1639C50.5687 0.76906 50.3759 1.37414 50.2016 1.98431L49.7291 3.83028C49.562 4.44537 49.4493 5.07111 49.3173 5.69464C49.1943 6.3196 49.0488 6.94328 48.96 7.57525L48.6624 9.47066C48.5769 10.105 48.5142 10.7425 48.44 11.3803C48.4054 11.6993 48.3666 12.0187 48.3358 12.3384L48.2686 13.2998L48.2017 14.2635C48.1826 14.585 48.1492 14.907 48.1461 15.2292L48.0912 17.1669L48.0776 17.6528L48.0828 18.1384L48.0939 19.111C48.0852 20.4121 48.1807 21.7085 48.2367 23.0182C48.2839 23.67 48.3476 24.3209 48.4012 24.9763L48.4855 25.9601L48.6056 26.9395C48.6884 27.5933 48.7572 28.2532 48.849 28.9098C48.9515 29.5665 49.0535 30.2231 49.1558 30.8794C49.2486 31.5766 49.591 32.2151 49.8294 32.8841C49.7348 32.1359 49.6253 31.3997 49.5666 30.6513C49.5509 30.4818 49.5352 30.3156 49.5186 30.147L49.9079 31.8941C50.0372 32.5181 50.2197 33.1273 50.3846 33.7431C50.5577 34.3562 50.7101 34.9779 50.9172 35.5818L51.5096 37.407C51.7204 38.0113 51.9532 38.608 52.1755 39.2104C52.289 39.5106 52.3989 39.813 52.5162 40.1121L52.8913 41.0001L53.2678 41.8897C53.3965 42.1851 53.5122 42.4874 53.6554 42.7758L54.4835 44.5284L54.691 44.9679L54.9152 45.3982L55.3654 46.2605C55.9467 47.4249 56.6184 48.5377 57.2613 49.6799C57.5982 50.24 57.9498 50.7916 58.2941 51.3517L58.8144 52.1907L59.3652 53.0098C59.735 53.5552 60.0953 54.1127 60.4738 54.6564C60.8624 55.1956 61.2507 55.7351 61.639 56.2736C62.0372 56.8531 62.632 57.2677 63.147 57.7564C62.7244 57.1322 62.2931 56.5249 61.9023 55.8842C61.504 55.2507 61.0998 54.6307 60.711 54.0027C60.337 53.3685 59.9627 52.7336 59.5884 52.0987C59.496 51.9404 59.3994 51.7866 59.3112 51.6254L59.2781 51.5648C59.5245 51.9283 59.7806 52.2852 60.0538 52.6371C60.9118 53.6618 61.8656 54.6728 62.8999 55.9128L62.3322 55.8179C62.7185 56.9283 62.9686 55.7008 63.6626 56.8245L63.3374 57.1818C63.6723 57.3079 63.887 57.4566 64.0327 57.6204C64.0449 58.5781 64.0512 59.4723 64.5425 59.9308C64.8618 60.2431 65.1509 60.5704 65.4165 60.9109C65.4421 60.9434 65.4646 60.9772 65.4894 61.0102C65.4831 61.011 65.4747 61.0115 65.4683 61.0123C65.4785 61.0165 65.4894 61.0202 65.4999 61.0242C65.7322 61.3304 65.9455 61.6485 66.1664 61.9579C66.6495 62.6633 67.0671 63.4127 67.4708 64.1801C68.3257 65.6685 69.1225 67.2472 70.302 68.5247C72.1046 70.5294 74.0591 72.4125 76.1401 74.1592C75.9358 74.3316 75.7534 74.5471 75.6125 74.8024C75.4405 75.1108 75.4156 75.4929 75.4395 75.9562C75.1913 75.7065 74.9431 75.4577 74.6947 75.2076C72.8697 73.266 71.0437 71.4027 69.0052 69.6655C68.7369 69.4417 68.4748 69.21 68.2176 68.9726C67.961 68.7344 67.7045 68.4957 67.4719 68.2326C66.9977 67.716 66.5405 67.181 66.0915 66.6398C65.6331 66.107 65.2241 65.5317 64.8052 64.9669C64.3897 64.3997 63.9615 63.8442 63.5434 63.2842C62.9727 62.4895 62.3379 61.8034 61.5722 61.3109C61.1824 61.0693 60.794 60.8523 60.3465 60.7062C59.9024 60.5576 59.4163 60.4676 58.8787 60.4485C58.5668 60.7284 58.3593 60.8692 58.2158 61.0552C58.071 61.2424 57.9654 61.4696 57.8805 61.6972C57.7936 61.9375 57.7208 62.1744 57.6586 62.4085C57.3025 61.9273 56.9532 61.4403 56.6135 60.9454L56.0438 60.1033C55.8586 59.8196 55.688 59.526 55.511 59.237C55.1614 58.6567 54.8117 58.0763 54.463 57.4968L54.2135 57.0806C54.5425 57.1495 54.7867 57.1537 54.9065 57.033C55.5441 56.3941 56.131 55.1655 55.971 54.4059C55.8456 53.8006 55.445 53.4688 54.9477 53.3653C54.4478 53.2642 53.8669 53.3838 53.3662 53.7235C53.1282 53.8838 52.9546 54.1297 52.7968 54.4433C52.5727 54.0154 52.3534 53.5852 52.1543 53.1442C51.8055 52.402 51.457 51.6595 51.1083 50.9166C50.7742 50.1677 50.463 49.409 50.1344 48.6579C49.9834 48.3096 49.3769 48.1434 48.9788 47.8867C48.8703 47.9388 48.7609 47.9909 48.6519 48.0429C48.6464 48.0327 48.6414 48.0223 48.6359 48.012C48.1434 47.0561 47.5088 46.1531 46.9925 45.1899C45.6597 42.4865 44.2698 39.7196 43.4704 36.745C43.3794 36.4208 43.294 36.0942 43.2139 35.7661C43.1344 35.438 43.0545 35.1093 43.0017 34.7754C42.8856 34.1094 42.7861 33.4394 42.6971 32.7673L42.5702 31.7584C42.5332 31.4216 42.5144 31.0824 42.4872 30.7447C42.4383 30.069 42.3891 29.3934 42.3401 28.7182L42.2968 28.1033L42.2789 27.4871L42.2516 26.255C42.2398 25.4337 42.2137 24.613 42.2513 23.7923C42.2765 22.9726 42.3019 22.1527 42.3266 21.3323C42.3677 20.5134 42.4333 19.6957 42.4805 18.8771C42.5033 18.4981 42.0382 18.0756 41.7994 17.6662C41.4717 17.6586 41.1395 17.6508 40.8121 17.643C40.5607 19.3145 40.1332 20.9917 40.1529 22.6948C40.1493 23.2671 40.1545 23.8405 40.1666 24.4137C40.1716 24.6195 40.1851 24.8257 40.1979 25.0313C40.1468 24.8225 40.087 24.6102 40.0175 24.3938C39.8935 23.9601 39.7338 23.5108 39.5297 23.0412C39.3202 23.495 39.1488 23.9393 39.0111 24.3736C38.8827 24.8073 38.7959 25.2304 38.7328 25.6441C38.6084 26.472 38.5961 27.2608 38.6584 28.0172C38.7336 28.7722 38.9045 29.4926 39.0988 30.1947C39.1977 30.5454 39.3053 30.8917 39.4177 31.2346C39.5288 31.5778 39.645 31.9181 39.7785 32.2546C39.8021 32.0781 39.8235 31.9029 39.854 31.7267L39.9521 31.1968C40.0181 30.8454 40.084 30.4922 40.1512 30.1353C40.2789 29.425 40.3838 28.7083 40.4201 27.9686C40.4202 27.9647 40.4204 27.9607 40.4206 27.9568L40.4482 28.2766L40.5008 28.7038L40.6058 29.5577C40.7502 30.6954 40.8609 31.8336 41.0321 32.963C41.1084 33.5288 41.1785 34.0949 41.2398 34.6617L41.3279 35.5125C41.3644 35.7947 41.3987 36.0772 41.43 36.3605C41.5121 37.0963 41.6394 37.8146 41.8031 38.5157C41.8439 38.6908 41.8871 38.865 41.9325 39.038C41.9844 39.2095 42.0381 39.3801 42.094 39.5493C42.206 39.8882 42.3257 40.2226 42.4526 40.5534C42.7063 41.2145 42.9864 41.8595 43.2879 42.4896C43.6132 43.1127 43.9572 43.7221 44.3117 44.3202C44.4893 44.6193 44.6692 44.9157 44.851 45.2095L45.1246 45.649C45.2171 45.7947 45.3188 45.9365 45.416 46.0796C45.8091 46.6459 46.2021 47.2113 46.5956 47.7774C46.7894 48.0575 46.9837 48.3384 47.1779 48.6193C47.367 48.9013 47.5803 49.1721 47.7762 49.4501C48.1752 50.003 48.5624 50.5593 48.9315 51.1252C48.9366 51.1341 48.9507 51.1374 48.9697 51.1375C49.1979 51.8147 49.4545 52.4808 49.7854 53.1145C50.0417 53.6266 50.3058 54.1355 50.5755 54.6413C50.8475 55.1461 51.1537 55.6327 51.4477 56.1258L52.3481 57.5936L52.575 57.9588L52.8154 58.3162L53.2957 59.0303C53.9395 59.9796 54.5534 60.9442 55.2174 61.8737C55.5413 62.3438 55.8601 62.8169 56.1713 63.2944L56.6348 64.013C56.7953 64.2479 56.9537 64.4845 57.1099 64.7229C57.2506 64.9373 57.3997 65.1416 57.5477 65.3475C57.6654 65.9386 57.8551 66.5081 58.1126 67.0543C58.2061 67.2516 58.3064 67.4472 58.4157 67.6382C58.531 67.8252 58.6538 68.0093 58.7829 68.1908C59.0412 68.5541 59.3264 68.9066 59.6316 69.25C59.9369 69.5934 60.2627 69.9278 60.6031 70.2546C60.9476 70.5777 61.3235 70.8784 61.6993 71.1815C62.1168 71.514 62.5813 71.8494 62.9914 72.2135C63.1982 72.394 63.3845 72.5888 63.5581 72.7817C63.7316 72.9753 63.879 73.18 63.9887 73.4004C64.2404 73.9113 64.518 74.4048 64.817 74.8831C65.1162 75.3608 65.4319 75.8285 65.7898 76.2556C66.1417 76.689 66.5107 77.1092 66.8921 77.518C67.0831 77.7225 67.2772 77.9241 67.4739 78.1233L67.7713 78.4202C67.8725 78.5165 67.9774 78.6088 68.0815 78.7024C68.9183 79.4452 69.7825 80.1655 70.6702 80.8551C71.5751 81.5222 72.4869 82.1821 73.3876 82.8579C74.6898 83.7651 75.7763 83.8313 76.6878 82.5571C76.9162 82.7076 77.1422 82.8607 77.3655 83.0159C77.593 83.1649 77.8196 83.314 78.0461 83.4621C78.4961 83.7625 78.9403 84.0695 79.382 84.3772C80.2566 85.0088 81.1629 85.5687 82.0716 86.1152C82.2995 86.2506 82.5285 86.3829 82.7589 86.5117C82.989 86.6415 83.2203 86.7677 83.46 86.8763C83.9357 87.1007 84.418 87.3079 84.9089 87.492C85.4003 87.6754 85.8994 87.8375 86.4108 87.9645C86.9285 88.0763 87.4564 88.1578 87.9959 88.2021C87.8296 87.6186 87.571 87.2077 87.2024 87.0399C86.8889 86.9038 86.5802 86.753 86.2718 86.6029C85.9629 86.4536 85.6552 86.3037 85.3522 86.1486C85.0493 85.9935 84.7508 85.833 84.4626 85.6622C84.1751 85.4892 83.8919 85.3169 83.6355 85.1044C83.117 84.6907 82.6553 84.2185 82.2916 83.6534C81.9298 83.0848 81.6562 82.4418 81.5449 81.6326C81.4912 81.2515 80.977 80.9075 80.6109 80.6355C80.3406 80.4334 80.0736 80.2285 79.8086 80.0213L79.4133 79.7089L79.032 79.3761C78.5254 78.9307 78.0277 78.4787 77.5354 78.0251C77.3745 77.8821 77.2213 77.7304 77.0663 77.5806C77.826 77.4481 78.3937 77.3315 78.4826 77.0561C78.5693 76.7902 78.6216 76.4749 78.6441 76.1501C80.124 77.2608 81.659 78.305 83.2425 79.2752C83.2209 79.4701 83.2231 79.6718 83.2457 79.8693C83.3108 80.3996 83.42 80.8929 83.568 81.3514C83.6422 81.5808 83.7263 81.8016 83.8195 82.0143C83.9162 82.2206 84.0221 82.4183 84.1365 82.6088C84.4205 83.0804 84.7619 83.4984 85.1411 83.8798C84.9372 83.8862 84.723 83.89 84.4862 83.8849C84.9813 84.494 85.5027 84.9963 86.033 85.428C86.5651 85.8553 87.1014 86.2242 87.6609 86.4977C88.2162 86.7817 88.7749 87.0175 89.3327 87.2317C89.6119 87.3389 89.8907 87.4411 90.1695 87.5408C90.4519 87.63 90.7339 87.7184 91.0157 87.8073C91.5333 87.9713 92.0812 88.1034 92.6128 88.2578C92.8791 88.3342 93.1403 88.4203 93.3948 88.5117C93.6509 88.5973 93.8979 88.6959 94.1314 88.8147C95.0635 89.289 95.7706 90.0885 95.9548 91.6766C95.9874 91.9563 96.3883 92.3113 96.7022 92.4104C97.4262 92.6437 98.1523 92.9127 98.8835 93.1559C99.6171 93.3866 100.362 93.565 101.105 93.6698C102.586 93.8972 104.098 93.6573 105.503 92.6132C105.732 92.4393 105.956 92.2799 106.181 92.1478C106.406 92.008 106.633 91.8966 106.868 91.8263C106.967 91.7967 107.069 91.7791 107.171 91.7653C107.328 91.7723 107.476 91.7674 107.618 91.757C107.874 91.785 108.145 91.8659 108.44 92.0152C108.911 92.2511 109.621 92.1982 110.156 92.0114C110.731 91.8252 111.3 91.6748 111.865 91.5565C112.43 91.4382 112.99 91.3578 113.549 91.267C114.109 91.1853 114.666 91.131 115.223 91.0995C115.502 91.084 115.78 91.0736 116.059 91.0683C116.338 91.0656 116.616 91.0446 116.895 91.0411C117.454 91.0278 118.012 91.0323 118.574 91.0501C118.855 91.0589 119.136 91.0713 119.418 91.0858C119.699 91.1004 119.98 91.099 120.263 91.1102C120.828 91.1275 121.395 91.1528 121.965 91.1824L122.822 91.2286C123.108 91.2422 123.393 91.2411 123.679 91.2477C123.653 91.2811 123.634 91.3178 123.609 91.354C123.67 91.3189 123.732 91.2839 123.793 91.2485L123.794 91.2484L123.72 91.1881C124.408 90.9037 125.223 90.886 126.025 90.6381C126.821 90.3761 127.598 89.8514 128.155 88.634C127.682 88.6734 127.243 88.7017 126.832 88.7262C126.626 88.7379 126.427 88.7497 126.233 88.7606C126.041 88.7736 125.852 88.7819 125.668 88.7833C124.932 88.7991 124.272 88.8273 123.619 88.9159C123.294 88.9592 122.969 89.0138 122.642 89.0712C122.315 89.117 121.987 89.1688 121.659 89.223C121.538 89.243 121.417 89.2631 121.296 89.2837C121.152 89.2273 121.009 89.19 120.867 89.196C120.526 89.2164 120.182 89.2218 119.839 89.2277C119.497 89.2342 119.154 89.2402 118.814 89.2387C118.473 89.2376 118.135 89.2291 117.8 89.2078C117.465 89.1838 117.135 89.1582 116.81 89.0852C116.16 88.9508 115.535 88.7386 114.955 88.3998C114.578 88.1769 114.223 87.9012 113.892 87.5574C114.993 87.5742 116.096 87.5663 117.197 87.5214C117.137 87.5517 117.08 87.5819 117.016 87.6126C117.733 87.932 118.425 88.1438 119.094 88.2886C119.762 88.4287 120.407 88.5152 121.029 88.5057C121.653 88.5078 122.258 88.4651 122.853 88.4036C123.15 88.3728 123.445 88.3377 123.738 88.3005C124.03 88.2517 124.322 88.2035 124.613 88.1549C125.149 88.0668 125.697 87.9364 126.241 87.8338C126.514 87.7813 126.785 87.74 127.054 87.7063C127.321 87.6666 127.586 87.6427 127.848 87.6433C128.894 87.6443 129.886 88.0371 130.769 89.3699C130.925 89.6043 131.443 89.7392 131.768 89.6859C132.519 89.5661 133.288 89.4777 134.05 89.3635C134.809 89.2368 135.554 89.0591 136.264 88.8165C136.272 88.8139 136.279 88.8106 136.287 88.8079C136.354 88.8289 136.42 88.8592 136.487 88.8722C137.068 88.968 137.701 88.7468 138.436 87.989C138.71 87.7055 139.017 87.4488 139.346 87.2148C139.673 86.977 140.015 86.742 140.374 86.5342C141.089 86.1132 141.858 85.7633 142.594 85.4399C143.311 85.0938 144.036 84.7626 144.764 84.4389C145.127 84.2746 145.497 84.1214 145.857 83.9518L146.933 83.4313C147.649 83.0815 148.374 82.7441 149.082 82.3745C149.781 81.9902 150.478 81.5982 151.166 81.1912C154.444 79.1995 157.507 76.8493 160.392 74.3016C159.626 74.6633 158.718 75.153 157.724 75.7479C157.233 76.0534 156.689 76.3447 156.136 76.6684C155.829 76.8464 155.516 77.0314 155.198 77.2203C155.227 77.0019 155.257 76.7835 155.283 76.5663C155.084 76.8667 154.886 77.1732 154.674 77.4591C154.699 77.4693 154.724 77.4797 154.75 77.4899C154.64 77.5561 154.533 77.6194 154.422 77.6866C153.83 78.034 153.207 78.3702 152.584 78.7315C152.273 78.9112 151.959 79.0927 151.642 79.2757C151.483 79.3663 151.327 79.4628 151.165 79.5508C151.003 79.6374 150.84 79.7243 150.677 79.8113C150.024 80.1602 149.368 80.5161 148.714 80.8759L148.225 81.1464C148.06 81.2343 147.891 81.3148 147.726 81.3996C147.393 81.5682 147.061 81.7359 146.73 81.9037C146.4 82.073 146.072 82.2414 145.746 82.4088C145.419 82.5751 145.101 82.752 144.771 82.9003C144.116 83.2088 143.475 83.5161 142.853 83.8192C142.542 83.9711 142.236 84.1208 141.934 84.2681C141.628 84.4059 141.327 84.5414 141.031 84.6742C140.735 84.8093 140.445 84.9428 140.161 85.0747C140.284 84.8846 140.416 84.7099 140.57 84.564C140.925 84.2259 141.384 84.0224 142.057 84.0212C142.583 84.0185 143.193 83.6498 143.585 83.2416C144.014 82.8148 144.453 82.4234 144.903 82.0621C145.353 81.7009 145.816 81.3759 146.274 81.0413C146.736 80.7154 147.208 80.4145 147.691 80.1345C147.932 79.9942 148.176 79.8591 148.422 79.7286C148.669 79.6002 148.908 79.4555 149.155 79.3258C149.647 79.0612 150.147 78.8127 150.656 78.5743C150.911 78.455 151.167 78.3387 151.425 78.2246C151.683 78.1102 151.933 77.9816 152.19 77.8637C152.701 77.6234 153.219 77.3896 153.74 77.1575L154.525 76.8109C154.786 76.6936 155.04 76.5635 155.298 76.4401C155.29 76.4818 155.29 76.5229 155.284 76.5668C155.322 76.5079 155.361 76.4487 155.4 76.3895L155.401 76.3889L155.307 76.3684C155.793 75.803 156.511 75.4184 157.114 74.8349C157.706 74.2408 158.161 73.4212 158.107 72.0832C157.702 72.3325 157.324 72.5565 156.968 72.7646C156.79 72.8683 156.617 72.9683 156.45 73.066C156.284 73.1648 156.12 73.2575 155.956 73.3422C155.306 73.6894 154.73 74.0133 154.189 74.3879C153.918 74.5739 153.653 74.7695 153.388 74.9683C153.117 75.1573 152.848 75.3519 152.58 75.5487C152.044 75.9426 151.511 76.3464 150.971 76.7341C150.427 77.1157 149.858 77.4518 149.285 77.7606C148.996 77.9132 148.705 78.0548 148.409 78.1816C148.114 78.3101 147.814 78.4227 147.5 78.502C145.094 79.1711 142.845 79.8533 140.768 80.8961C140.247 81.1563 139.74 81.4476 139.245 81.7762C138.999 81.9445 138.751 82.1074 138.504 82.2787C138.259 82.4517 138.016 82.6343 137.776 82.8285C137.295 83.2166 136.825 83.6488 136.363 84.1319C135.896 84.6004 135.434 85.1065 134.979 85.6777C134.501 84.5254 133.913 84.0768 133.265 83.9766C132.947 83.9325 132.607 83.956 132.257 84.019C132.916 83.7459 133.575 83.4716 134.236 83.2142C134.472 83.1266 134.702 83.0191 134.934 82.9166L135.627 82.6082L137.012 82.0011C137.479 81.8126 137.927 81.5797 138.386 81.3784C138.844 81.1719 139.305 80.9733 139.77 80.786C141.615 80.0002 143.505 79.3411 145.573 78.9263C145.81 78.881 146.042 78.8054 146.268 78.7102C146.495 78.6164 146.715 78.5003 146.926 78.3628C147.351 78.0945 147.764 77.7889 148.187 77.5278C150.457 76.1575 152.561 74.521 154.631 72.8679L156.143 71.5748C156.647 71.145 157.161 70.7258 157.643 70.2714C158.134 69.8262 158.628 69.3847 159.127 68.948L159.502 68.6209L159.864 68.2805L160.595 67.6051L161.378 66.8887L161.77 66.5299C161.901 66.4101 162.022 66.2817 162.149 66.1577L163.655 64.6548L164.032 64.2778C164.157 64.1513 164.274 64.0177 164.395 63.8879L165.116 63.1024L165.838 62.3144L166.2 61.9196C166.317 61.7857 166.429 61.6474 166.545 61.5117L167.92 59.8685L168.264 59.456L168.589 59.0306L169.24 58.1768L169.891 57.3195C169.999 57.1761 170.11 57.034 170.216 56.8888L170.522 56.4465L171.746 54.6692C173.314 52.2582 174.801 49.763 176.042 47.1355L176.52 46.1539C176.682 45.8273 176.814 45.4891 176.962 45.1564L177.82 43.1437C178.087 42.465 178.333 41.7778 178.587 41.0913L178.961 40.0587C179.076 39.7115 179.182 39.3615 179.292 39.012C179.52 38.2703 179.755 37.5285 179.969 36.7805L180.548 34.5172C180.753 33.7632 180.892 32.9961 181.053 32.2313C181.204 31.4651 181.383 30.7006 181.491 29.9259L181.856 27.602C181.961 26.8243 182.038 26.043 182.129 25.2611C182.171 24.8698 182.219 24.4787 182.257 24.0864L182.34 22.9077L182.421 21.7263C182.445 21.3322 182.485 20.9371 182.489 20.5423L182.557 18.1671L182.574 17.5714L182.567 16.9767L182.554 15.7844C182.564 14.1891 182.447 12.6001 182.378 10.9949C182.32 10.1958 182.242 9.39795 182.177 8.59442L182.073 7.38826L181.926 6.18728C181.824 5.38614 181.74 4.57679 181.627 3.77213C181.502 2.96685 181.376 2.16193 181.251 1.35737C181.137 0.502739 180.717 -0.280164 180.425 -1.10048C180.541 -0.18347 180.675 0.719458 180.747 1.63699C180.766 1.84483 180.785 2.0483 180.806 2.25494L180.329 0.113367C180.17 -0.651939 179.946 -1.39853 179.744 -2.15347C179.532 -2.90493 179.345 -3.6672 179.091 -4.40729L178.365 -6.64469C178.106 -7.38559 177.821 -8.1169 177.548 -8.85536C177.409 -9.22348 177.274 -9.59413 177.13 -9.9608L176.671 -11.0493L176.209 -12.1398C176.051 -12.5021 175.909 -12.8728 175.734 -13.2262L174.718 -15.3746L174.464 -15.9134L174.189 -16.4409L173.637 -17.4979C172.925 -18.9251 172.101 -20.2892 171.313 -21.6896C170.9 -22.3757 170.469 -23.0524 170.047 -23.7389L169.409 -24.7678L168.734 -25.7717C168.281 -26.4404 167.839 -27.1238 167.374 -27.7902C166.898 -28.4512 166.422 -29.1124 165.946 -29.7728C165.458 -30.4832 164.729 -30.9915 164.097 -31.5908C164.615 -30.8255 165.144 -30.0813 165.623 -29.2955C166.111 -28.5191 166.607 -27.7586 167.084 -26.9891C167.542 -26.2114 168.001 -25.4332 168.46 -24.6548C168.573 -24.4607 168.692 -24.2719 168.799 -24.0746L169.121 -23.4823L169.762 -22.3043L170.4 -21.1338L170.995 -19.9407L171.588 -18.7553L171.883 -18.165L172.156 -17.5623L173.244 -15.1686L174.235 -12.7473C175.504 -9.50964 176.568 -6.23434 177.4 -2.92896C178.208 0.384698 178.771 3.72737 179.078 7.06703C178.958 6.73892 178.861 6.40909 178.749 6.08268ZM59.9252 -20.7767C59.5602 -20.2064 59.1304 -19.6684 58.7143 -19.1612C58.3202 -18.6447 57.9155 -18.1364 57.5053 -17.6317C57.302 -17.3782 57.0897 -17.1305 56.8901 -16.8739L56.3 -16.0982C56.0647 -15.7866 55.8271 -15.4756 55.5916 -15.1634C55.6118 -15.4501 55.6231 -15.7322 55.6255 -15.9924C55.6257 -16.6211 54.1352 -17.2472 53.3401 -17.9018C53.1648 -18.0513 53.0694 -18.2942 52.9367 -18.4946C53.2474 -19.419 53.4998 -20.1239 53.7499 -20.6414C53.8716 -20.9022 54.0042 -21.1086 54.1438 -21.2728C54.2826 -21.4374 54.427 -21.5605 54.5856 -21.6454C55.22 -21.9849 56.0801 -21.7245 57.6853 -21.1254C58.6077 -20.784 59.3475 -20.7321 59.846 -21.0065C60.0258 -21.1094 60.1833 -21.251 60.3074 -21.4377C60.1888 -21.2145 60.0647 -20.9915 59.9252 -20.7767ZM75.7133 -39.8875C75.6045 -39.8343 75.488 -39.7766 75.376 -39.7215C75.3755 -39.7265 75.3754 -39.7316 75.375 -39.7366C76.0709 -40.4202 76.6148 -40.9348 77.0718 -41.2827C77.2986 -41.46 77.5104 -41.5841 77.7089 -41.6672C77.9068 -41.7514 78.0914 -41.7955 78.2714 -41.7995C78.6223 -41.8073 78.9575 -41.6603 79.3429 -41.3642C79.2997 -41.3507 79.2621 -41.34 79.2165 -41.3256C78.9374 -41.2313 78.6226 -41.1078 78.2677 -40.9688C77.5608 -40.6868 76.6957 -40.3349 75.7133 -39.8875ZM82.3425 -36.9974C82.0521 -36.7214 81.6779 -36.5554 81.1298 -36.5547C81.0232 -36.5542 80.9123 -36.5347 80.8008 -36.5013C80.8043 -36.5172 80.8055 -36.5346 80.809 -36.5505C80.9493 -36.619 81.0914 -36.6887 81.2295 -36.756C81.4793 -36.8682 81.725 -36.979 81.966 -37.0871C82.2081 -37.1973 82.4448 -37.3062 82.6756 -37.4142C82.5752 -37.2588 82.4679 -37.1162 82.3425 -36.9974ZM82.5009 -38.6042C81.968 -38.2903 81.3998 -38.0282 80.8477 -37.7835C80.8345 -37.9033 80.8202 -38.024 80.7972 -38.1497C80.6496 -38.9705 80.4159 -39.7701 80.191 -40.5782C80.3796 -40.3838 80.5776 -40.1739 80.7994 -39.9328C81.4677 -39.2107 82.1039 -38.8297 82.6724 -38.8489C82.7724 -38.8541 82.8712 -38.8734 82.9692 -38.8999C82.8173 -38.7974 82.6617 -38.6971 82.5009 -38.6042ZM83.9091 -39.6297C83.9075 -39.6283 83.9057 -39.6263 83.9041 -39.6249C83.9056 -39.6273 83.9072 -39.6287 83.9088 -39.631L83.9091 -39.6297ZM128.551 -25.6482C128.645 -25.5374 128.74 -25.426 128.833 -25.3156C128.823 -25.3034 128.812 -25.2913 128.801 -25.2788C128.538 -25.38 128.275 -25.4812 128.012 -25.5821C128.059 -25.6588 128.106 -25.7341 128.153 -25.81L128.551 -25.6482ZM153.287 15.322L153.212 15.3067L153.278 15.2792C153.281 15.2937 153.284 15.3079 153.287 15.322ZM150.892 7.90495C150.468 8.15849 150.142 8.39118 149.898 8.60778C149.654 8.82374 149.493 9.02361 149.381 9.21823C149.167 9.60414 149.215 9.94841 149.403 10.2926C149.617 10.6647 150.03 11.0065 150.01 11.4259C149.996 11.6512 149.991 11.8731 149.986 12.0943C149.938 11.8878 149.892 11.6792 149.843 11.4745L149.707 11.8434C149.594 11.3975 149.453 10.9298 149.304 10.4572C149.135 9.99174 148.964 9.51921 148.797 9.06012C148.488 8.13377 148.154 7.27887 148.077 6.55627C148.007 5.82852 147.546 5.18478 147.103 4.66478C146.661 4.14272 146.211 3.75359 146.067 3.52553C145.549 2.93545 145.316 2.24863 145.234 1.77712C145.16 1.41899 145.187 1.19091 145.27 1.24247C144.369 -0.0762447 142.983 -0.970421 142.029 -2.93618C142.076 -3.20087 141.839 -3.62311 141.471 -4.11237C141.088 -4.59177 140.553 -5.12155 140.045 -5.6375C139.282 -6.38044 138.536 -7.05404 138.309 -7.48802C138.396 -7.52515 138.48 -7.56445 138.571 -7.60013C139.203 -7.84667 139.714 -8.12914 140.133 -8.44843C140.545 -8.05869 140.952 -7.66202 141.35 -7.25808C141.757 -6.8287 142.163 -6.39945 142.569 -5.97058C142.953 -5.52144 143.338 -5.07231 143.722 -4.62353C144.118 -4.1847 144.459 -3.70047 144.824 -3.2359L145.365 -2.53408C145.458 -2.41922 145.541 -2.29641 145.624 -2.17458L145.875 -1.80952C146.174 -1.43257 146.471 -1.06502 146.768 -0.708033C146.921 -0.533055 147.049 -0.343518 147.188 -0.164453C147.327 0.0154468 147.464 0.193232 147.599 0.368684C147.871 0.720099 148.151 1.05512 148.413 1.38779C148.665 1.72713 148.917 2.05457 149.168 2.36917C149.273 2.68289 149.395 3.01588 149.533 3.36659C149.652 3.72619 149.786 4.10375 149.934 4.49732C150.01 4.69334 150.087 4.89404 150.167 5.09914C150.244 5.30508 150.34 5.50834 150.409 5.72767C150.56 6.1616 150.722 6.60967 150.894 7.07081C150.979 7.30175 151.072 7.53379 151.157 7.77236C151.236 8.01337 151.316 8.25781 151.398 8.50554C151.431 8.60639 151.467 8.70926 151.501 8.81077C151.316 8.52854 151.143 8.22312 150.892 7.90495ZM133.642 -20.5246C133.399 -20.7387 133.139 -20.9666 132.855 -21.2169C133.026 -21.2315 133.181 -21.2308 133.328 -21.223L133.604 -21.0829L134.405 -20.6297L135.206 -20.1759C135.22 -20.1681 135.234 -20.1606 135.247 -20.1528C135.251 -20.1482 135.255 -20.1434 135.259 -20.1391C135.423 -19.9462 135.584 -19.7609 135.772 -19.6096C135.706 -19.5312 135.641 -19.4543 135.576 -19.3761C134.939 -19.7708 134.296 -20.1566 133.642 -20.5246ZM156.345 4.07785C156.185 3.78388 156.072 3.46481 156.01 3.11291C156.226 3.58805 156.44 4.06723 156.652 4.55004C156.539 4.39822 156.434 4.24228 156.345 4.07785ZM152.827 -2.4134C152.799 -2.38322 152.768 -2.35117 152.74 -2.32105C150.674 -5.81794 148.191 -9.06954 145.398 -12.0309C146.336 -10.9275 147.185 -9.88655 147.802 -8.87334C146.294 -10.6458 144.657 -12.3071 142.923 -13.8635C143.183 -13.8883 143.447 -13.9115 143.721 -13.934C145.393 -12.4138 146.973 -10.782 148.438 -9.04254C150.149 -6.96394 151.599 -4.73054 152.827 -2.4134ZM155.445 -16.0515C155.667 -15.6489 155.89 -15.2499 156.115 -14.8556C156.339 -14.4596 156.576 -14.0783 156.781 -13.6718C157.071 -13.1273 157.38 -12.6021 157.682 -12.0782C157.838 -11.8205 157.969 -11.545 158.102 -11.2736C158.233 -11.0009 158.36 -10.7274 158.479 -10.4505C158.597 -10.1737 158.707 -9.89362 158.804 -9.6094C158.906 -9.32749 158.967 -9.02189 159.028 -8.72104C159.142 -8.11462 159.193 -7.48496 159.15 -6.82465C159.149 -6.80705 159.151 -6.78951 159.149 -6.77213C159.099 -6.84484 159.048 -6.91769 158.998 -6.99019C158.839 -7.2188 158.681 -7.44797 158.523 -7.67693C158.369 -7.90694 158.195 -8.12801 158.035 -8.35464C157.709 -8.80567 157.393 -9.25941 157.092 -9.72084C157.088 -9.728 157.077 -9.73073 157.061 -9.73101C156.875 -10.2835 156.666 -10.827 156.396 -11.3438C156.187 -11.7614 155.971 -12.1767 155.751 -12.5892C155.529 -13.0009 155.279 -13.398 155.04 -13.8003L154.305 -14.9976L154.12 -15.2957L153.924 -15.587L153.532 -16.1694C153.007 -16.9436 152.506 -17.7309 151.965 -18.4891C151.701 -18.8724 151.441 -19.2585 151.187 -19.6479L150.809 -20.2342C150.678 -20.4261 150.549 -20.6189 150.421 -20.8133C150.307 -20.9883 150.185 -21.1548 150.064 -21.3225C149.969 -21.8046 149.813 -22.269 149.604 -22.7148C149.528 -22.8758 149.446 -23.0353 149.356 -23.1913C149.262 -23.3439 149.162 -23.4938 149.057 -23.642C148.914 -23.8425 148.758 -24.038 148.597 -24.2307C148.615 -24.2255 148.635 -24.2252 148.652 -24.2195C149.043 -24.099 149.442 -23.9481 149.809 -23.7529C149.986 -23.6584 150.155 -23.5529 150.313 -23.4366C150.401 -23.3385 150.489 -23.2408 150.577 -23.1438C150.759 -22.9429 150.94 -22.7495 151.121 -22.5562C151.294 -22.3355 151.469 -22.1153 151.64 -21.8941L152.069 -21.335L152.282 -21.0555C152.351 -20.9606 152.415 -20.861 152.482 -20.7642L153.268 -19.5978L153.656 -19.0179L153.849 -18.7291L154.029 -18.429L154.745 -17.2374L155.103 -16.6486C155.161 -16.5503 155.223 -16.4553 155.28 -16.3551L155.445 -16.0515ZM139.255 -34.1085C139.985 -33.9235 140.695 -33.6622 141.341 -33.3231C141.677 -33.1539 141.998 -32.9531 142.324 -32.764L143.297 -32.1897L144.265 -31.6115L145.207 -30.99L146.145 -30.3668C146.457 -30.1587 146.771 -29.9543 147.069 -29.726L148.873 -28.3862C148.898 -28.3682 148.922 -28.3474 148.946 -28.3288C148.81 -27.9991 148.613 -27.7318 148.389 -27.4982C147.924 -27.9141 147.468 -28.301 147.032 -28.6467C146.806 -28.8319 146.571 -28.9912 146.347 -29.1445C146.123 -29.2969 145.906 -29.4378 145.697 -29.5659C145.278 -29.8228 144.892 -30.0301 144.548 -30.1809C144.827 -29.7493 145.174 -29.2841 145.569 -28.7974C145.766 -28.5527 145.98 -28.3085 146.194 -28.0504C146.406 -27.7891 146.628 -27.5233 146.858 -27.2554C147.029 -27.0554 147.21 -26.8534 147.39 -26.6512C147.342 -26.6134 147.295 -26.5758 147.249 -26.5376C147.058 -26.3794 146.887 -26.2124 146.743 -26.0278C146.721 -26.0453 146.699 -26.0634 146.677 -26.0809C146.337 -26.3522 145.958 -26.6259 145.624 -26.9228C145.455 -27.07 145.303 -27.2287 145.161 -27.3861C145.02 -27.5436 144.899 -27.711 144.81 -27.891C144.605 -28.3079 144.378 -28.7105 144.134 -29.1002C143.89 -29.4899 143.632 -29.8713 143.34 -30.2199C143.054 -30.5734 142.752 -30.9163 142.441 -31.2498C142.285 -31.4164 142.127 -31.5808 141.966 -31.7436L141.724 -31.9857C141.641 -32.0641 141.555 -32.1396 141.471 -32.216C140.788 -32.822 140.083 -33.4092 139.359 -33.9721C139.286 -34.0256 139.213 -34.0795 139.141 -34.133C139.179 -34.1235 139.218 -34.1189 139.255 -34.1085ZM135.47 -29.976C135.673 -29.7725 135.875 -29.5694 136.078 -29.3655C137.567 -27.7814 139.056 -26.2616 140.719 -24.8447C140.938 -24.662 141.152 -24.4732 141.361 -24.2797C141.571 -24.0854 141.78 -23.8905 141.97 -23.6763C142.357 -23.2549 142.73 -22.8188 143.096 -22.377C143.47 -21.9424 143.803 -21.4731 144.145 -21.0124C144.484 -20.5496 144.833 -20.0968 145.175 -19.6396C145.64 -18.9913 146.158 -18.4317 146.783 -18.0298C147.101 -17.8327 147.418 -17.6555 147.783 -17.5362C148.145 -17.4149 148.541 -17.342 148.98 -17.3262C149.234 -17.5545 149.403 -17.6696 149.521 -17.8209C149.639 -17.9736 149.725 -18.1591 149.794 -18.3446C149.865 -18.5404 149.924 -18.7336 149.975 -18.9247C150.265 -18.5321 150.551 -18.1348 150.827 -17.7314L151.292 -17.0445C151.443 -16.8129 151.582 -16.5736 151.726 -16.338C152.012 -15.8647 152.297 -15.3912 152.581 -14.9185L152.785 -14.5791C152.517 -14.6351 152.318 -14.6386 152.22 -14.5402C151.7 -14.0191 151.221 -13.017 151.351 -12.3973C151.454 -11.9038 151.78 -11.6331 152.186 -11.5483C152.594 -11.4658 153.068 -11.5637 153.476 -11.8404C153.671 -11.9712 153.812 -12.1717 153.941 -12.4276C154.124 -12.0786 154.303 -11.7277 154.465 -11.3682C154.749 -10.7626 155.034 -10.1568 155.318 -9.55121C155.59 -8.94053 155.845 -8.3214 156.113 -7.70854C156.236 -7.42437 156.73 -7.28866 157.055 -7.07944C157.144 -7.12184 157.233 -7.16428 157.322 -7.2071C157.326 -7.19865 157.33 -7.18998 157.335 -7.18211C157.737 -6.40228 158.255 -5.66577 158.676 -4.88015C159.763 -2.67481 160.897 -0.417945 161.549 2.00862C161.623 2.27318 161.693 2.53975 161.758 2.80715C161.823 3.07477 161.888 3.34295 161.931 3.615C161.95 3.72093 161.962 3.82838 161.98 3.93472C161.954 3.98516 161.933 4.03628 161.905 4.08613C161.617 4.60535 161.224 5.09569 160.71 5.54938C160.547 5.69145 160.371 5.82756 160.189 5.96112C160.136 5.79161 160.084 5.62174 160.032 5.45224C159.93 5.12308 159.829 4.79391 159.728 4.46547C159.619 4.13939 159.497 3.81891 159.382 3.49568C159.265 3.17259 159.148 2.85021 159.031 2.52804L158.856 2.04421C158.798 1.88249 158.739 1.72184 158.671 1.56515C158.406 0.933086 158.142 0.302328 157.879 -0.327024L157.681 -0.799658L157.462 -1.26101C157.315 -1.5689 157.169 -1.8762 157.022 -2.18303C156.728 -2.79669 156.445 -3.41769 156.112 -4.00846C155.789 -4.6072 155.467 -5.20449 155.146 -5.80072C154.803 -6.38489 154.448 -6.96198 154.099 -7.54185C153.922 -7.83 153.754 -8.12475 153.568 -8.40656C153.379 -8.68725 153.191 -8.96726 153.003 -9.24745C152.814 -9.52757 152.625 -9.80787 152.436 -10.0876C152.247 -10.3672 152.062 -10.6502 151.856 -10.9163C151.452 -11.4571 151.048 -11.9965 150.646 -12.535C150.449 -12.8088 150.233 -13.0665 150.019 -13.3247C149.804 -13.5839 149.59 -13.843 149.377 -14.1016C149.162 -14.3606 148.948 -14.6192 148.734 -14.8775C148.518 -15.1352 148.286 -15.3757 148.062 -15.6258C147.61 -16.1197 147.161 -16.6186 146.703 -17.1069C145.752 -18.0452 144.825 -19.0122 143.818 -19.8843C143.627 -20.048 143.419 -20.2258 143.196 -20.4164C142.97 -20.6047 142.734 -20.8115 142.465 -21.0061C142.012 -21.3472 141.506 -21.7214 140.972 -22.1124C140.586 -22.7499 140.168 -23.3664 139.662 -23.9144C138.191 -25.5496 136.597 -27.0857 134.899 -28.5104C135.066 -28.6511 135.215 -28.8272 135.33 -29.035C135.469 -29.2863 135.489 -29.598 135.47 -29.976ZM121.279 -40.2421C123.466 -39.6289 125.63 -38.9541 127.704 -38.1152C127.839 -38.0421 127.977 -37.9713 128.108 -37.8938C128.343 -37.7527 128.574 -37.6124 128.783 -37.4391C129.206 -37.1016 129.583 -36.7163 129.88 -36.2553C130.175 -35.7914 130.398 -35.2669 130.489 -34.6068C130.532 -34.2959 130.952 -34.0151 131.25 -33.7935C131.471 -33.6284 131.689 -33.4611 131.905 -33.2922L132.227 -33.037L132.539 -32.7655C132.952 -32.4022 133.358 -32.0336 133.759 -31.6636C133.89 -31.5468 134.015 -31.4231 134.142 -31.3008C133.522 -31.1928 133.059 -31.0977 132.986 -30.8729C132.915 -30.6559 132.873 -30.3991 132.855 -30.1341C131.647 -31.0403 130.396 -31.8921 129.103 -32.6834C129.121 -32.8425 129.119 -33.0072 129.101 -33.168C129.048 -33.6007 128.959 -34.0029 128.838 -34.3773C128.777 -34.5644 128.709 -34.7446 128.633 -34.9179C128.554 -35.0863 128.467 -35.2476 128.374 -35.4028C128.143 -35.7874 127.864 -36.1286 127.555 -36.4398C127.721 -36.445 127.896 -36.448 128.089 -36.444C127.685 -36.9412 127.26 -37.3507 126.827 -37.7028C126.393 -38.0515 125.956 -38.3525 125.499 -38.5756C125.046 -38.8075 124.59 -38.9994 124.135 -39.1746C123.908 -39.2618 123.68 -39.3455 123.453 -39.4268C123.222 -39.4994 122.993 -39.5716 122.763 -39.6438C122.341 -39.7775 121.894 -39.8851 121.46 -40.0115C121.243 -40.0737 121.03 -40.1437 120.822 -40.2187C120.613 -40.2886 120.411 -40.369 120.221 -40.466C120.173 -40.4906 120.128 -40.5194 120.081 -40.5464C120.482 -40.4465 120.882 -40.3476 121.279 -40.2421ZM93.6409 -39.722C96.0784 -40.2066 98.5251 -40.6139 100.962 -40.7813C101.218 -40.7625 101.473 -40.7418 101.723 -40.6851C102.253 -40.5756 102.763 -40.4026 103.236 -40.1262C103.544 -39.9444 103.833 -39.7194 104.103 -39.4389C103.205 -39.4526 102.305 -39.4459 101.407 -39.4094C101.456 -39.4342 101.502 -39.4588 101.555 -39.4837C100.97 -39.7443 100.405 -39.917 99.86 -40.035C99.3151 -40.1493 98.7887 -40.2198 98.2811 -40.2123C97.7726 -40.2138 97.2788 -40.179 96.7937 -40.1291C96.5511 -40.1037 96.3106 -40.0756 96.071 -40.0452C95.8328 -40.0056 95.595 -39.9662 95.3571 -39.9267C94.9201 -39.855 94.473 -39.7487 94.0289 -39.6647C93.807 -39.6221 93.585 -39.588 93.3665 -39.5607C93.1484 -39.5283 92.9322 -39.5086 92.719 -39.5092C92.7122 -39.5091 92.7054 -39.5099 92.6988 -39.5104C93.0129 -39.5819 93.3273 -39.6555 93.6409 -39.722ZM87.7968 -42.7554C88.009 -42.7963 88.2241 -42.8331 88.447 -42.8596C88.7048 -42.8923 88.9708 -42.9141 89.2488 -42.9175C89.6333 -42.9279 90.0317 -43.0099 90.4259 -43.1382C90.3612 -42.9041 90.276 -42.7039 90.1386 -42.5563C89.9419 -42.353 89.6331 -42.1475 89.3143 -42.0183C88.9946 -41.8901 88.6644 -41.838 88.4309 -41.9257C88.1797 -42.0214 87.9591 -42.3639 87.7968 -42.7554ZM50.1743 18.3378C50.3783 18.3408 50.5701 18.3438 50.7728 18.3471C50.7706 18.622 50.7684 18.8969 50.766 19.1724L50.7647 19.379L50.772 19.5854L50.7873 19.9983C50.81 20.5496 50.8322 21.1009 50.8544 21.6506C50.6193 21.6627 50.3848 21.6743 50.1482 21.6863C50.1452 20.5653 50.1102 19.4512 50.1743 18.3378ZM50.9276 26.2212C51.0286 26.4862 51.1076 26.7553 51.1991 27.0215C51.2831 27.2681 51.3581 27.5167 51.4285 27.7659L51.422 27.7773C51.28 28.8569 51.4224 29.4815 51.6162 30.2097C51.6337 30.2712 51.6536 30.3351 51.6731 30.3983C51.7694 31.317 51.8841 32.2365 52.0237 33.1555C52.0244 33.1608 52.0254 33.166 52.0261 33.1713C51.5151 30.8631 51.1413 28.5415 50.9276 26.2212ZM55.4522 42.9615C55.6878 43.4253 55.896 43.8987 56.1543 44.3504L55.8772 44.5744C56.2151 45.237 56.5319 45.908 56.8881 46.5586L56.8369 46.2458C56.9721 46.47 57.2596 46.9502 57.5462 47.493C57.6898 47.7644 57.8336 48.0515 57.9588 48.3307C58.0926 48.6054 58.2144 48.8694 58.2943 49.1045L58.1095 49.1659C58.1904 49.4181 58.2794 49.6614 58.3739 49.8991L58.0069 49.2256L57.5219 48.2525L57.0381 47.2858L56.7976 46.8043L56.5745 46.3127L55.6868 44.36L54.8786 42.3848C54.4734 41.3513 54.1017 40.3118 53.7494 39.2687C53.7859 39.283 53.8273 39.2958 53.8608 39.3109C53.8776 39.3442 53.8954 39.3817 53.9119 39.4128C54.0041 39.5734 54.0921 39.7022 54.1678 39.7956C54.3204 39.9816 54.4325 40.0224 54.4867 39.8789C54.5083 39.822 54.518 39.7276 54.5209 39.6104C54.7387 40.0204 54.9565 40.4424 55.1269 40.8933C55.3629 41.5278 55.5825 42.1919 55.7229 42.916L55.4522 42.9615ZM180.006 16.7278C179.755 16.7238 179.52 16.7202 179.272 16.7168C179.275 16.3799 179.277 16.0426 179.28 15.705L179.281 15.4515L179.272 15.199L179.253 14.6931C179.226 14.0174 179.198 13.3413 179.171 12.6675C179.459 12.6528 179.747 12.6383 180.037 12.6233C180.041 13.9971 180.084 15.3628 180.006 16.7278Z" fill="url(#paint10_linear_4001_1689)"/>
<path d="M42.3662 8.35581C43.4236 9.28453 43.7911 9.68456 43.8685 9.63751C44.2081 9.40131 44.5245 9.07348 44.7266 8.72039C44.7739 8.63722 44.3754 8.10458 44.1499 8.08196C43.7057 8.02995 43.2386 8.19359 42.3662 8.35581Z" fill="url(#paint11_linear_4001_1689)"/>
<path d="M50.8664 36.7043C50.9196 36.7021 50.9765 36.6078 51.0343 36.5496C50.9259 36.4755 50.8249 36.4066 50.7201 36.3346C50.7066 36.4106 50.6922 36.4918 50.6784 36.5698C50.7419 36.6184 50.8037 36.7061 50.8664 36.7043Z" fill="url(#paint12_linear_4001_1689)"/>
<path d="M55.0427 46.5784C54.861 46.6536 54.6724 46.732 54.4869 46.809C54.6804 47.1543 54.8746 47.5007 55.0687 47.847L55.3629 48.3658L55.6776 48.8714C55.8259 48.7829 55.9827 48.689 56.1328 48.5995C56.0361 48.4337 55.9394 48.268 55.8429 48.1026C55.7501 47.935 55.6631 47.7642 55.5732 47.595C55.396 47.2569 55.2198 46.9179 55.0427 46.5784Z" fill="url(#paint13_linear_4001_1689)"/>
<path d="M63.011 57.895C62.8957 58.0026 62.7786 58.1123 62.6644 58.2193C63.0335 58.5917 63.4001 58.9613 63.7656 59.33C63.8773 59.2178 63.9893 59.1053 64.1 58.9946C63.7386 58.6297 63.3722 58.2596 63.011 57.895Z" fill="url(#paint14_linear_4001_1689)"/>
<path d="M59.9851 54.3385C59.8352 54.0974 59.7401 53.8165 59.5466 53.6699C59.445 53.5967 59.1662 53.7573 58.9658 53.8109C59.1286 54.0306 59.2682 54.2791 59.4705 54.4569C59.5416 54.5195 59.7632 54.3988 59.9851 54.3385Z" fill="url(#paint15_linear_4001_1689)"/>
<path d="M47.9582 0.687373L48.0765 0.298616L48.316 -0.478163C48.2139 -0.507584 48.1105 -0.537646 48.0073 -0.567361L47.6989 0.202872L47.547 0.589048L47.4106 0.980135C47.231 1.50361 47.0514 2.02707 46.8721 2.55033C47.0635 2.58697 47.258 2.61744 47.4512 2.6506C47.5857 2.12736 47.7204 1.60355 47.8554 1.07954L47.9582 0.687373Z" fill="url(#paint16_linear_4001_1689)"/>
<path d="M45.5723 9.9312C45.6212 9.4846 45.6629 9.03551 45.7213 8.59255C45.5939 8.5639 45.4648 8.5348 45.3393 8.50695C45.3008 8.97425 45.287 9.44641 45.2622 9.91447C45.3641 9.92009 45.4657 9.9259 45.5723 9.9312Z" fill="url(#paint17_linear_4001_1689)"/>
</g>
<defs>
<linearGradient id="paint0_linear_4001_1689" x1="145.276" y1="1.23492" x2="145.347" y2="1.35932" gradientUnits="userSpaceOnUse">
<stop stop-color="#FF3D91"/>
<stop offset="1" stop-color="#9A0A9D"/>
</linearGradient>
<linearGradient id="paint1_linear_4001_1689" x1="35.4607" y1="32.976" x2="44.571" y2="48.7555" gradientUnits="userSpaceOnUse">
<stop stop-color="#FF3D91"/>
<stop offset="1" stop-color="#9A0A9D"/>
</linearGradient>
<linearGradient id="paint2_linear_4001_1689" x1="123.134" y1="91.6042" x2="123.382" y2="92.0347" gradientUnits="userSpaceOnUse">
<stop stop-color="#FF3D91"/>
<stop offset="1" stop-color="#9A0A9D"/>
</linearGradient>
<linearGradient id="paint3_linear_4001_1689" x1="37.1269" y1="23.5209" x2="37.253" y2="23.7393" gradientUnits="userSpaceOnUse">
<stop stop-color="#FF3D91"/>
<stop offset="1" stop-color="#9A0A9D"/>
</linearGradient>
<linearGradient id="paint4_linear_4001_1689" x1="172.548" y1="61.2461" x2="173.144" y2="62.2794" gradientUnits="userSpaceOnUse">
<stop stop-color="#FF3D91"/>
<stop offset="1" stop-color="#9A0A9D"/>
</linearGradient>
<linearGradient id="paint5_linear_4001_1689" x1="165.49" y1="68.7182" x2="166.282" y2="70.0893" gradientUnits="userSpaceOnUse">
<stop stop-color="#FF3D91"/>
<stop offset="1" stop-color="#9A0A9D"/>
</linearGradient>
<linearGradient id="paint6_linear_4001_1689" x1="47.5177" y1="55.1387" x2="47.632" y2="55.3367" gradientUnits="userSpaceOnUse">
<stop stop-color="#FF3D91"/>
<stop offset="1" stop-color="#9A0A9D"/>
</linearGradient>
<linearGradient id="paint7_linear_4001_1689" x1="168.974" y1="51.2824" x2="175.624" y2="62.7997" gradientUnits="userSpaceOnUse">
<stop stop-color="#FF3D91"/>
<stop offset="1" stop-color="#9A0A9D"/>
</linearGradient>
<linearGradient id="paint8_linear_4001_1689" x1="53.3345" y1="61.3967" x2="62.4922" y2="77.2583" gradientUnits="userSpaceOnUse">
<stop stop-color="#FF3D91"/>
<stop offset="1" stop-color="#9A0A9D"/>
</linearGradient>
<linearGradient id="paint9_linear_4001_1689" x1="65.942" y1="-45.6616" x2="108.545" y2="28.1296" gradientUnits="userSpaceOnUse">
<stop stop-color="#FF3D91"/>
<stop offset="1" stop-color="#9A0A9D"/>
</linearGradient>
<linearGradient id="paint10_linear_4001_1689" x1="76.5825" y1="-42.7734" x2="148.908" y2="82.4984" gradientUnits="userSpaceOnUse">
<stop stop-color="#FF3D91"/>
<stop offset="1" stop-color="#9A0A9D"/>
</linearGradient>
<linearGradient id="paint11_linear_4001_1689" x1="43.1865" y1="7.88217" x2="44.1171" y2="9.49397" gradientUnits="userSpaceOnUse">
<stop stop-color="#FF3D91"/>
<stop offset="1" stop-color="#9A0A9D"/>
</linearGradient>
<linearGradient id="paint12_linear_4001_1689" x1="50.7248" y1="36.3319" x2="50.9247" y2="36.678" gradientUnits="userSpaceOnUse">
<stop stop-color="#FF3D91"/>
<stop offset="1" stop-color="#9A0A9D"/>
</linearGradient>
<linearGradient id="paint13_linear_4001_1689" x1="54.7367" y1="46.6648" x2="55.9274" y2="48.7272" gradientUnits="userSpaceOnUse">
<stop stop-color="#FF3D91"/>
<stop offset="1" stop-color="#9A0A9D"/>
</linearGradient>
<linearGradient id="paint14_linear_4001_1689" x1="62.9811" y1="57.9123" x2="63.7911" y2="59.3153" gradientUnits="userSpaceOnUse">
<stop stop-color="#FF3D91"/>
<stop offset="1" stop-color="#9A0A9D"/>
</linearGradient>
<linearGradient id="paint15_linear_4001_1689" x1="59.2378" y1="53.6538" x2="59.7211" y2="54.4909" gradientUnits="userSpaceOnUse">
<stop stop-color="#FF3D91"/>
<stop offset="1" stop-color="#9A0A9D"/>
</linearGradient>
<linearGradient id="paint16_linear_4001_1689" x1="47.003" y1="0.0124234" x2="48.2575" y2="2.18512" gradientUnits="userSpaceOnUse">
<stop stop-color="#FF3D91"/>
<stop offset="1" stop-color="#9A0A9D"/>
</linearGradient>
<linearGradient id="paint17_linear_4001_1689" x1="45.1303" y1="8.6276" x2="45.8053" y2="9.79668" gradientUnits="userSpaceOnUse">
<stop stop-color="#FF3D91"/>
<stop offset="1" stop-color="#9A0A9D"/>
</linearGradient>
</defs>
</svg>
